<?xml version="1.0" standalone="no"?>
<!DOCTYPE svg PUBLIC "-//W3C//DTD SVG 20010904//EN"
 "http://www.w3.org/TR/2001/REC-SVG-20010904/DTD/svg10.dtd">
<svg version="1.0" xmlns="http://www.w3.org/2000/svg"
 width="2186.000000pt" height="767.000000pt" viewBox="0 0 2186.000000 767.000000"
 preserveAspectRatio="xMidYMid meet">

<g transform="translate(0.000000,767.000000) scale(0.100000,-0.100000)"
fill="#FFFFFF" stroke="none">
<path d="M10930 7664 c-542 -40 -1036 -174 -1499 -409 -370 -187 -682 -415
-981 -714 -624 -625 -991 -1388 -1102 -2291 -20 -166 -17 -701 5 -870 119
-892 500 -1660 1128 -2276 611 -598 1353 -955 2221 -1070 162 -21 574 -29 749
-15 938 79 1771 466 2429 1130 610 616 984 1399 1086 2278 24 206 24 624 0
823 -92 760 -364 1413 -831 1995 -111 139 -376 408 -521 529 -579 484 -1269
781 -2029 871 -125 15 -542 27 -655 19z m690 -118 c694 -91 1332 -363 1878
-798 163 -130 440 -407 568 -568 391 -492 649 -1048 763 -1650 48 -253 55
-350 55 -690 0 -356 -9 -455 -65 -735 -227 -1132 -961 -2090 -2001 -2611 -659
-330 -1413 -456 -2150 -359 -890 118 -1713 557 -2307 1231 -704 799 -1031
1828 -916 2884 140 1278 940 2402 2110 2961 410 196 810 304 1310 353 105 10
636 -2 755 -18z"/>
<path d="M10940 7234 c-327 -29 -578 -77 -845 -164 -347 -113 -693 -292 -974
-503 -94 -71 -105 -76 -173 -86 -184 -28 -321 -157 -409 -385 -42 -109 -67
-212 -81 -329 l-12 -97 -40 -11 c-179 -45 -284 -91 -357 -157 -70 -63 -85
-109 -81 -252 2 -63 4 -133 4 -155 1 -24 -17 -92 -45 -170 -49 -141 -94 -309
-126 -476 -69 -362 -69 -866 0 -1229 137 -716 460 -1318 980 -1825 390 -380
814 -636 1333 -804 595 -194 1256 -214 1871 -60 991 250 1833 951 2262 1883
363 792 409 1694 127 2518 -139 405 -339 759 -615 1088 -107 128 -333 352
-451 448 -504 409 -1099 664 -1749 747 -117 15 -521 28 -619 19z m685 -123
c275 -43 495 -101 740 -198 570 -225 1074 -611 1449 -1112 14 -18 1 -11 -65
36 -58 41 -247 133 -275 133 -32 0 -58 -34 -50 -65 6 -22 4 -26 -11 -21 -10 3
-63 13 -118 21 -560 84 -1124 -198 -1276 -638 -73 -212 -58 -508 37 -704 21
-43 59 -99 93 -136 116 -123 193 -275 213 -418 13 -91 30 -109 79 -83 43 21
156 151 186 212 28 57 28 57 25 240 -4 225 -2 232 86 232 81 0 140 -31 170
-90 28 -56 30 -187 5 -311 -9 -48 -17 -135 -17 -204 -1 -106 2 -125 21 -162
70 -129 526 -373 698 -373 106 0 172 51 205 158 24 78 25 148 3 218 -15 50
-15 55 1 92 10 22 16 55 14 78 -3 39 -3 39 -50 42 l-48 3 -1 -38 c0 -21 -8
-56 -18 -78 -17 -38 -17 -42 1 -94 35 -102 14 -241 -40 -270 -35 -19 -120 -12
-200 15 -137 45 -385 189 -458 265 -27 28 -29 37 -33 114 -2 55 5 132 19 221
37 230 20 352 -61 433 -54 55 -110 75 -211 75 -100 1 -129 -13 -163 -80 -18
-35 -20 -59 -20 -229 0 -209 -2 -217 -67 -291 l-31 -35 -33 92 c-42 117 -113
235 -187 313 -122 127 -175 300 -163 536 3 69 12 148 20 177 77 280 336 504
695 601 87 23 114 26 291 26 201 1 297 -11 413 -52 56 -19 80 -10 85 32 2 14
6 26 9 26 23 0 161 -101 211 -154 82 -88 105 -151 100 -266 -3 -57 -11 -100
-25 -130 l-20 -45 -8 48 c-7 45 -11 50 -56 73 -70 35 -157 53 -294 60 -179 10
-377 -9 -792 -77 l-203 -33 0 -42 c0 -24 4 -45 8 -48 5 -3 89 8 188 25 387 64
476 73 709 73 183 1 230 -2 277 -17 31 -9 59 -21 62 -26 3 -4 21 -104 41 -222
20 -117 38 -215 40 -217 2 -2 8 11 13 30 48 170 97 327 108 343 7 11 22 53 35
94 18 60 21 89 16 159 l-5 85 40 -69 c204 -351 338 -751 405 -1209 25 -170 25
-667 0 -842 -88 -626 -318 -1164 -705 -1653 -103 -130 -404 -427 -533 -528
-512 -396 -1065 -620 -1714 -694 -158 -18 -549 -15 -715 6 -540 66 -1028 248
-1470 547 -182 123 -323 240 -495 413 -463 465 -772 1041 -899 1676 -89 445
-86 926 11 1360 25 116 81 320 103 375 l12 30 25 -50 c32 -62 130 -159 178
-176 24 -9 34 -18 30 -28 -3 -8 -20 -66 -37 -130 -40 -146 -45 -275 -13 -311
52 -58 153 -69 258 -30 63 24 97 62 97 112 0 30 -23 58 -47 58 -22 0 -53 -29
-53 -50 0 -33 -117 -63 -159 -41 -36 20 -27 113 31 310 l22 73 45 -6 c98 -12
392 -17 516 -8 72 5 132 7 135 5 10 -9 0 -261 -13 -338 -23 -127 -28 -134
-157 -220 -135 -90 -185 -117 -263 -140 l-56 -16 -58 59 c-48 48 -67 61 -110
71 -90 22 -173 -6 -213 -71 -25 -41 -27 -137 -4 -199 9 -24 20 -87 24 -139 10
-118 35 -188 97 -265 98 -120 195 -159 328 -132 140 29 307 123 521 295 144
115 158 141 162 307 3 93 -1 150 -19 250 -13 73 -23 172 -23 225 0 83 3 101
24 140 34 61 91 90 177 90 94 0 95 -4 91 -237 -2 -186 -2 -189 24 -246 60
-127 213 -327 252 -327 35 0 44 17 55 111 24 185 107 412 183 497 100 109 138
230 145 454 l5 158 98 65 c54 36 117 86 139 113 153 177 38 350 -311 467 -58
19 -112 35 -121 35 -16 0 -20 26 -32 250 -11 188 -44 331 -88 378 -65 70 -225
99 -390 72 -53 -8 -64 -6 -130 20 -40 16 -108 39 -152 51 -44 11 -81 23 -83
24 -5 5 157 118 253 177 415 254 879 414 1370 473 186 22 657 14 840 -14z
m-2450 -741 c116 -32 145 -41 145 -49 0 -11 -225 -80 -304 -94 -62 -10 -63
-11 -79 -53 -15 -42 -15 -42 10 -47 58 -11 268 45 473 125 63 25 94 31 192 35
138 7 196 -5 232 -48 41 -49 65 -211 69 -463 l2 -160 -253 -63 c-380 -94 -577
-135 -657 -135 -90 0 -190 33 -347 114 -134 69 -124 51 -107 205 29 265 137
506 266 595 27 18 68 38 93 45 50 15 199 10 265 -7z m1080 -870 c143 -69 198
-128 181 -195 -10 -38 -72 -102 -153 -156 -339 -229 -880 -370 -1484 -386
-228 -6 -396 5 -489 33 -149 44 -258 258 -248 489 4 109 18 133 102 184 50 30
172 77 246 94 l26 6 -13 -137 c-7 -75 -11 -142 -9 -148 8 -21 199 -141 306
-193 149 -72 208 -85 355 -78 310 15 802 152 892 249 27 28 40 92 49 229 l6
97 66 -20 c37 -11 112 -41 167 -68z m-340 -75 c-6 -68 -12 -91 -28 -106 -72
-66 -502 -183 -768 -208 -200 -19 -296 14 -586 199 -20 13 -22 20 -17 75 10
113 -2 109 131 44 142 -70 271 -109 359 -109 75 0 301 46 654 133 140 35 257
62 258 61 2 -1 1 -41 -3 -89z m219 -615 c-12 -170 -57 -296 -130 -359 -26 -23
-49 -60 -74 -120 -34 -77 -95 -261 -117 -350 l-8 -34 -56 84 c-90 134 -84 111
-84 334 0 226 -8 258 -74 302 -42 28 -140 31 -222 7 -78 -23 -151 -98 -174
-179 -24 -80 -22 -201 6 -350 13 -73 22 -163 23 -230 1 -151 -9 -170 -142
-274 -296 -230 -486 -310 -600 -252 -46 23 -113 95 -140 148 -26 50 -43 145
-36 193 4 24 1 47 -10 67 -22 44 -38 122 -31 153 11 50 92 66 151 30 18 -12
41 -39 51 -61 21 -46 41 -54 126 -46 91 7 180 48 340 154 117 77 146 102 164
136 35 69 54 180 60 359 l6 166 81 12 c293 41 620 128 819 218 l62 28 8 -25
c4 -14 4 -64 1 -111z"/>
<path d="M12950 5195 c-179 -24 -327 -44 -329 -44 -5 -1 6 -82 13 -88 3 -3
135 11 293 31 159 20 298 36 310 36 18 0 30 -14 52 -59 l30 -59 -113 -149
c-68 -90 -115 -162 -119 -182 -16 -76 1 -332 22 -354 5 -5 27 -3 51 3 37 10
41 14 35 33 -3 12 -9 85 -12 162 l-6 141 96 126 c119 156 137 185 137 223 0
54 -95 226 -123 224 -7 -1 -158 -21 -337 -44z"/>
<path d="M13505 4786 c-27 -13 -59 -33 -70 -46 l-20 -22 40 -35 c62 -54 139
-86 188 -80 46 6 85 32 107 70 14 24 13 28 -16 64 -60 75 -139 92 -229 49z
m122 -82 c-3 -3 -12 -4 -19 -1 -8 3 -5 6 6 6 11 1 17 -2 13 -5z"/>
<path d="M13810 4552 l-23 -19 27 -94 c40 -144 47 -196 27 -221 -26 -31 -95
-17 -135 28 -34 39 -59 43 -79 13 -17 -24 -8 -70 19 -100 43 -48 193 -65 252
-29 62 38 67 109 22 286 -39 151 -60 176 -110 136z"/>
<path d="M12202 3838 c-6 -7 -29 -78 -52 -158 -23 -80 -45 -148 -49 -152 -3
-4 -264 -63 -579 -131 l-572 -124 -173 58 c-94 32 -228 72 -297 89 -69 17
-141 36 -161 41 -35 9 -39 15 -80 110 -54 126 -70 137 -132 91 -165 -124 -370
-236 -532 -291 -106 -35 -275 -71 -338 -71 -29 0 -126 -27 -283 -81 -288 -97
-482 -175 -575 -230 -80 -48 -79 -28 -12 -199 95 -242 244 -504 409 -722 98
-129 398 -431 524 -528 225 -173 552 -357 790 -444 600 -219 1187 -252 1786
-101 539 136 994 394 1390 790 242 241 422 490 569 790 97 197 162 364 145
375 -6 3 -125 85 -264 181 l-254 174 -17 55 c-21 65 -58 103 -119 120 -51 14
-53 13 -185 -83 l-74 -54 -119 81 c-108 73 -124 81 -166 81 -26 0 -58 -4 -72
-8 -21 -7 -41 5 -135 78 -60 47 -158 128 -217 180 -105 92 -135 108 -156 83z
m363 -377 c33 -25 63 -48 68 -51 4 -3 3 -51 -3 -107 -11 -109 -1 -253 22 -301
19 -39 59 -55 105 -43 20 6 39 9 41 6 8 -7 -89 -125 -98 -120 -9 6 -472 603
-492 634 -9 15 14 121 47 219 3 7 53 -29 127 -90 68 -57 150 -123 183 -147z
m-2385 2 c11 -32 9 -35 -271 -397 -155 -202 -285 -366 -290 -366 -12 0 -271
503 -262 510 4 3 44 15 88 25 192 43 417 142 595 261 l95 63 17 -32 c9 -18 22
-46 28 -64z m2210 -379 c146 -190 277 -359 291 -377 l26 -31 152 203 153 203
50 -78 c66 -103 194 -231 278 -276 113 -62 107 -68 97 80 -7 111 -6 131 9 156
11 19 19 60 22 121 l5 93 43 -31 c49 -35 97 -128 138 -271 24 -81 56 -265 56
-319 0 -30 -57 -133 -152 -274 -202 -302 -484 -583 -788 -788 -123 -83 -303
-185 -311 -177 -3 4 -41 210 -83 457 -115 664 -269 1265 -389 1518 l-44 94 86
21 c47 11 88 20 91 21 3 0 124 -155 270 -345z m498 264 l93 -63 -60 -3 -61 -3
0 -49 0 -50 57 0 57 0 -35 -26 c-58 -44 -192 -105 -203 -94 -7 7 -11 69 -11
158 0 220 13 230 163 130z m439 27 c12 -9 27 -32 33 -53 10 -38 14 -272 5
-272 -19 0 -215 115 -215 126 0 1 15 0 34 -3 31 -5 33 -3 40 27 12 64 10 69
-40 72 l-47 3 79 57 c44 32 81 58 84 58 3 0 15 -7 27 -15z m-2903 -41 c135
-34 428 -126 453 -142 9 -6 7 -28 -7 -92 -42 -190 -265 -1524 -305 -1830 -15
-113 -28 -206 -29 -207 -3 -3 -151 35 -246 64 -209 62 -485 190 -686 316 -121
76 -284 197 -284 210 0 18 386 738 588 1097 147 261 361 620 369 620 3 0 70
-16 147 -36z m1453 -39 c45 -82 96 -217 138 -359 19 -66 34 -120 33 -121 -2
-1 -95 -10 -207 -20 -144 -13 -205 -15 -210 -7 -11 19 -145 491 -140 496 8 8
313 75 334 73 13 -1 31 -22 52 -62z m-476 -65 c4 -14 56 -198 117 -410 137
-479 223 -794 312 -1149 72 -286 133 -552 128 -556 -14 -12 -342 -85 -381 -85
-11 0 -16 20 -21 98 -13 176 -66 682 -97 927 -57 450 -128 833 -179 967 -22
58 -81 122 -142 154 -16 8 -28 18 -28 22 0 9 227 60 259 58 17 -1 27 -9 32
-26z m-2137 -75 c17 -32 18 -42 8 -98 -14 -75 -36 -97 -96 -97 -22 0 -46 4
-52 8 -10 7 -77 163 -71 167 9 8 156 54 172 54 14 1 27 -11 39 -34z m1892
-111 c23 -24 37 -53 54 -115 72 -267 155 -818 215 -1429 35 -363 43 -480 31
-487 -5 -3 -106 -8 -225 -11 -206 -4 -355 4 -527 29 l-71 11 19 141 c52 396
257 1628 318 1915 l12 52 71 -37 c39 -21 85 -52 103 -69z m-2168 -13 l26 -65
-43 -216 c-24 -120 -46 -222 -50 -229 -4 -6 -22 71 -39 171 -40 233 -56 357
-47 366 10 11 98 41 114 39 7 -1 25 -31 39 -66z m4290 -49 c39 -19 52 -32 52
-48 0 -12 3 -36 6 -53 4 -19 2 -31 -4 -31 -15 0 -121 108 -161 165 l-35 48 45
-27 c24 -15 68 -39 97 -54z m-4534 -29 c20 -195 88 -539 156 -786 22 -78 38
-142 37 -144 -10 -9 -209 270 -286 400 -101 173 -238 474 -223 489 15 15 293
118 303 112 3 -2 9 -34 13 -71z m5079 -16 c26 -17 47 -36 47 -42 0 -16 -71
-187 -76 -183 -1 2 -12 44 -23 93 -11 50 -27 110 -35 134 -22 60 -20 66 12 45
15 -10 48 -31 75 -47z m-4332 -214 c57 -112 107 -203 111 -203 4 0 46 51 94
113 112 145 115 148 60 47 -25 -47 -90 -165 -143 -262 -53 -98 -98 -176 -100
-175 -5 5 -163 709 -163 726 0 23 22 -16 141 -246z m-221 153 c0 -2 32 -143
70 -315 63 -278 70 -322 70 -416 l0 -105 -81 -153 c-44 -83 -84 -156 -89 -161
-5 -5 -34 16 -70 50 -55 53 -64 69 -96 159 -20 55 -51 153 -69 217 l-34 117
61 299 61 300 56 -5 c31 -3 67 0 81 5 27 12 40 14 40 8z m2828 -278 c17 -68
30 -124 28 -125 -6 -6 -347 -45 -352 -40 -6 6 -63 225 -64 243 0 9 100 22 341
43 13 1 23 -26 47 -121z m72 -260 c6 -24 15 -59 20 -78 20 -78 72 -392 66
-397 -9 -9 -354 -38 -361 -31 -7 7 -137 489 -133 493 2 2 89 14 193 28 105 14
193 25 197 26 4 0 12 -18 18 -41z m118 -625 c6 -27 13 -69 17 -95 6 -43 5 -48
-11 -48 -11 0 -82 -7 -159 -15 -77 -8 -147 -15 -156 -15 -13 0 -22 22 -39 90
-12 50 -20 93 -17 96 6 7 236 31 309 33 l46 1 10 -47z m42 -235 c0 -2 7 -41
15 -88 23 -131 26 -124 -62 -161 -43 -17 -112 -44 -154 -60 l-75 -27 -34 149
c-18 82 -31 151 -29 153 2 2 74 10 159 18 85 9 161 16 168 17 6 0 12 0 12 -1z"/>
<path d="M13072 2690 c-22 -9 -42 -46 -42 -76 0 -9 14 -29 30 -46 25 -24 36
-29 58 -23 67 16 88 89 38 132 -29 24 -47 27 -84 13z"/>
<path d="M13085 2265 c-49 -48 -16 -125 54 -125 61 0 95 55 67 108 -25 49 -82
57 -121 17z"/>
<path d="M3557 4070 c-5 -19 -15 -20 -478 -22 -357 -2 -473 -6 -476 -15 -3 -7
10 -16 29 -21 l33 -8 3 -423 2 -423 -30 -11 c-16 -6 -30 -17 -30 -24 0 -18
401 -14 407 3 2 6 -10 14 -27 17 l-30 7 0 155 0 155 203 -2 c199 -3 202 -3
212 -26 21 -48 30 -13 33 126 2 119 0 142 -12 142 -8 0 -17 -9 -21 -19 -8 -28
-31 -31 -232 -31 l-183 0 0 100 0 100 281 0 c280 0 319 -4 319 -35 0 -8 7 -15
15 -15 13 0 15 23 15 145 0 117 -3 145 -14 145 -7 0 -16 -9 -19 -20z"/>
<path d="M4737 4070 c-5 -19 -15 -20 -478 -22 -342 -2 -473 -6 -476 -14 -2 -7
10 -17 27 -22 l30 -11 0 -425 0 -426 -25 -6 c-14 -3 -25 -12 -25 -20 0 -12 36
-14 200 -14 156 0 200 3 200 13 0 7 -13 18 -30 24 l-30 11 0 151 0 151 205 0
205 0 10 -25 c22 -57 30 -23 30 120 0 122 -2 145 -15 145 -8 0 -15 -7 -15 -15
0 -29 -39 -35 -229 -35 l-191 0 0 100 0 100 286 0 c285 0 324 -4 324 -35 0 -8
7 -15 15 -15 13 0 15 23 15 145 0 117 -3 145 -14 145 -7 0 -16 -9 -19 -20z"/>
<path d="M6657 4070 c-5 -19 -15 -20 -499 -22 -424 -3 -493 -5 -493 -18 0 -8
11 -17 25 -20 l25 -6 3 -426 2 -426 -30 -7 c-16 -4 -30 -13 -30 -21 0 -12 74
-14 495 -14 484 0 495 0 505 -20 23 -44 30 -17 30 120 0 148 -5 162 -42 115
l-19 -25 -310 0 -309 0 0 105 0 105 196 0 c195 0 234 -6 234 -35 0 -8 7 -15
15 -15 13 0 15 22 15 140 0 90 -4 140 -10 140 -6 0 -14 -8 -17 -17 -4 -10 -11
-21 -17 -25 -6 -4 -102 -8 -213 -8 l-203 0 0 80 0 80 320 0 320 0 10 -25 c22
-57 30 -23 30 120 0 117 -3 145 -14 145 -7 0 -16 -9 -19 -20z"/>
<path d="M18230 3935 c0 -131 2 -155 15 -155 8 0 15 9 15 19 0 10 7 22 16 25
9 3 106 6 216 6 167 0 199 -2 195 -14 -3 -8 -110 -159 -238 -337 -128 -178
-235 -334 -237 -346 l-4 -23 465 0 c456 0 465 0 470 -20 3 -11 12 -20 21 -20
15 0 16 18 14 158 -3 129 -6 157 -18 157 -8 0 -17 -11 -20 -25 l-6 -25 -238
-3 c-192 -2 -237 0 -229 10 68 88 476 676 477 687 1 14 -46 16 -441 19 -435 2
-443 3 -443 22 0 11 -7 20 -15 20 -13 0 -15 -24 -15 -155z"/>
<path d="M20397 4070 c-5 -20 -14 -20 -496 -20 -433 0 -491 -2 -491 -15 0 -9
11 -20 25 -25 l25 -10 0 -425 0 -425 -25 -6 c-14 -3 -25 -12 -25 -20 0 -12 78
-14 490 -14 479 0 490 0 500 -20 23 -44 30 -17 30 120 0 118 -2 140 -15 140
-8 0 -15 -4 -15 -9 0 -5 -7 -17 -16 -25 -13 -14 -57 -16 -325 -16 l-309 0 0
105 0 105 196 0 c195 0 234 -6 234 -35 0 -8 7 -15 15 -15 13 0 15 22 15 140 0
138 -9 171 -30 115 l-10 -25 -210 0 -210 0 0 80 0 80 320 0 320 0 10 -25 c22
-57 30 -23 30 120 0 117 -3 145 -14 145 -7 0 -16 -9 -19 -20z"/>
<path d="M1712 4050 c-262 -47 -419 -198 -446 -427 -8 -68 9 -175 39 -241 32
-69 121 -162 195 -201 186 -99 474 -99 661 0 168 90 261 278 232 468 -37 237
-242 394 -533 406 -52 2 -119 0 -148 -5z m265 -254 c128 -64 177 -210 114
-334 -26 -50 -55 -76 -125 -108 -48 -22 -73 -27 -137 -27 -69 0 -88 5 -145 33
-77 38 -117 87 -134 162 -28 131 38 242 172 290 74 26 186 20 255 -16z"/>
<path d="M5 4040 c-8 -13 -9 -12 28 -28 l27 -12 0 -418 c0 -436 -1 -442 -43
-442 -10 0 -17 -5 -14 -12 5 -17 398 -19 404 -2 2 6 -10 14 -27 17 l-30 7 0
104 0 104 90 82 89 81 111 -166 c60 -91 110 -175 110 -186 0 -14 -9 -21 -30
-26 -17 -3 -29 -11 -27 -17 2 -7 72 -12 220 -14 184 -2 217 0 217 12 0 8 -8
17 -17 20 -10 4 -99 127 -199 275 l-181 269 106 99 c143 133 220 197 259 217
17 9 32 23 32 31 0 13 -29 15 -207 13 -177 -3 -208 -5 -208 -18 0 -8 10 -16
22 -18 65 -9 24 -58 -245 -290 l-142 -123 0 201 0 201 30 11 c17 5 29 15 27
22 -5 15 -393 21 -402 6z"/>
<path d="M4977 4044 c-14 -14 -6 -24 26 -32 l32 -8 0 -425 0 -424 -32 -10
c-18 -5 -33 -15 -33 -22 0 -18 421 -14 427 3 2 7 -12 15 -32 18 l-35 7 2 426
3 427 33 8 c19 5 32 14 29 21 -3 9 -60 13 -208 15 -113 1 -208 -1 -212 -4z"/>
<path d="M15554 4039 c-9 -14 5 -27 36 -31 l25 -3 0 -425 0 -425 -32 -10 c-18
-5 -33 -15 -33 -23 0 -11 67 -13 393 -10 450 3 470 7 558 85 71 65 100 178 68
274 -15 43 -63 95 -110 119 l-37 19 53 53 c61 61 80 113 70 193 -14 119 -77
168 -235 185 -134 14 -747 13 -756 -1z m710 -200 c21 -16 26 -29 26 -64 0 -96
-20 -105 -225 -105 l-155 0 0 95 0 95 164 0 c150 0 165 -2 190 -21z m-45 -328
c24 -5 52 -18 63 -28 27 -28 35 -96 14 -128 -32 -49 -68 -59 -233 -63 l-153
-4 0 116 0 116 133 0 c72 -1 152 -5 176 -9z"/>
<path d="M17154 4039 c-4 -7 1 -16 10 -21 9 -5 16 -17 16 -26 -1 -9 -83 -201
-184 -427 -136 -305 -188 -413 -204 -420 -48 -22 -12 -30 138 -33 158 -3 192
4 155 32 -19 13 -18 16 13 82 l32 69 243 3 244 2 32 -72 c29 -64 31 -73 17
-84 -41 -30 -17 -34 161 -32 172 3 210 11 162 33 -15 7 -63 97 -161 305 -263
556 -258 543 -242 561 33 37 21 39 -205 39 -153 0 -222 -3 -227 -11z m301
-401 l83 -173 -84 -3 c-46 -1 -122 -1 -168 0 l-83 3 80 173 c45 94 83 172 85
172 2 0 41 -78 87 -172z"/>
<path d="M20702 4033 c2 -10 13 -19 25 -21 12 -2 24 -13 27 -25 3 -12 6 -201
6 -419 0 -347 -2 -399 -16 -412 -8 -9 -22 -16 -30 -16 -8 0 -14 -7 -14 -15 0
-13 27 -15 185 -15 144 0 185 3 185 13 0 7 -13 18 -30 24 l-30 11 0 289 0 288
67 -75 c37 -41 122 -131 188 -200 203 -210 256 -271 253 -294 -2 -15 -12 -22
-30 -24 -16 -2 -28 -9 -28 -18 0 -12 33 -14 200 -14 163 0 200 3 200 14 0 7
-14 16 -30 20 l-30 6 2 427 3 427 25 6 c14 3 25 12 25 20 0 13 -30 15 -185 15
-155 0 -185 -2 -185 -15 0 -8 11 -17 25 -20 l25 -6 3 -217 2 -217 -83 88
c-181 189 -297 318 -297 330 0 7 12 17 26 22 14 6 24 16 21 23 -3 9 -66 13
-256 15 -237 2 -252 1 -249 -15z"/>
</g>
</svg>
